<?xml version="1.0" encoding="UTF-8"?>
<!DOCTYPE svg PUBLIC "-//W3C//DTD SVG 1.1//EN" "http://www.w3.org/Graphics/SVG/1.1/DTD/svg11.dtd">
<!-- Creator: CorelDRAW 2021 (64-Bit) -->
<svg xmlns="http://www.w3.org/2000/svg" xml:space="preserve" width="512px" height="472px" version="1.1" shape-rendering="geometricPrecision" text-rendering="geometricPrecision" image-rendering="optimizeQuality" fill-rule="evenodd" clip-rule="evenodd"
viewBox="0 0 512 472.36"
 xmlns:xlink="http://www.w3.org/1999/xlink"
 xmlns:xodm="http://www.corel.com/coreldraw/odm/2003">
 <g id="Layer_x0020_1">
  <metadata id="CorelCorpID_0Corel-Layer"/>
  <path fill="#FFF" d="M248.05 1.7c86.17,10.77 169.08,59.36 248.86,144.18 17.4,23.5 22.89,43.85 -0.58,49.61l-2.18 0c0.08,0.21 0.13,0.44 0.13,0.68l0 14.02c0,8.7 -7.12,15.82 -15.82,15.82l-400.59 0c-8.7,0 -15.83,-7.12 -15.83,-15.82l0 -14.02c0,-0.16 0.02,-0.32 0.07,-0.47 -13.39,-0.21 -24.69,-5.75 -33.85,-14.56 -46.45,-44.71 -32.94,-110.61 20.83,-142.28 57.45,-33.83 150.95,-43.16 198.96,-37.16zm10.03 387.69l41.84 0c2.71,0 4.92,2.21 4.92,4.92l0 57c0,2.71 -2.21,4.92 -4.92,4.92l-41.84 0c-2.7,0 -4.92,-2.21 -4.92,-4.92l0 -57c0,-2.71 2.22,-4.92 4.92,-4.92zm0 -16.13l4.62 0 0 -95.82c-4.47,-2.48 -9.69,-4.31 -18.1,-3.39 -24.96,2.78 -38.17,35.29 -69.28,45.01 -4.29,1.35 -8.7,2.27 -13.23,2.75 6.75,22.32 17.67,40.9 31.53,55.07 12.36,12.66 27.14,21.84 43.42,27.07l0 -9.64c0,-5.75 2.36,-10.99 6.17,-14.81l0.06 -0.06c3.84,-3.82 9.07,-6.18 14.81,-6.18zm36.87 0l4.97 0c5.72,0 10.98,2.36 14.81,6.18l0.06 0.06c3.82,3.84 6.18,9.07 6.18,14.81l0 57c0,5.72 -2.36,10.98 -6.18,14.81l-0.06 0.06c-3.85,3.83 -9.1,6.18 -14.81,6.18l-41.84 0c-5.74,0 -10.98,-2.37 -14.81,-6.18l-0.06 -0.06c-3.83,-3.84 -6.17,-9.1 -6.17,-14.81l0 -13.93c-25.13,-6.05 -47.9,-19.05 -66.47,-38.07 -20.12,-20.6 -35.2,-48.23 -42.79,-81.63 -33.97,-10.92 -52.71,-40.97 -47.29,-80.14l270.03 0c-20.44,24.54 -39.19,41.07 -55.57,46.39l0 89.33zm-115.85 -261.47c75.78,-21.62 167.81,2.28 224.67,62.77 -65.71,-37 -113.36,-46.68 -228.13,-39.8 -15.26,0.92 -25.29,-14.78 3.46,-22.97zm-27.46 -69.36c105.84,-22.16 229.17,17.2 303.3,103.42 -90.56,-60.42 -157.61,-81.67 -316.79,-69.87 -26.39,1.95 -31.6,-24.13 13.49,-33.55z"/>
 </g>
</svg>
